<svg width="76" height="74" viewBox="0 0 76 74" fill="none" xmlns="http://www.w3.org/2000/svg">
<path d="M38 0C33.0098 0 28.0684 0.980794 23.458 2.88638C18.8477 4.79197 14.6586 7.58503 11.1299 11.1061C4.00356 18.2172 0 27.862 0 37.9186C0 54.6786 10.906 68.8981 25.992 73.9413C27.892 74.2446 28.5 73.0691 28.5 72.0453V65.6371C17.974 67.9122 15.732 60.556 15.732 60.556C13.984 56.1574 11.514 54.982 11.514 54.982C8.056 52.631 11.78 52.7069 11.78 52.7069C15.58 52.9723 17.594 56.6125 17.594 56.6125C20.9 62.3761 26.486 60.6698 28.652 59.7597C28.994 57.295 29.982 55.6266 31.046 54.6786C22.61 53.7307 13.756 50.4697 13.756 36.0227C13.756 31.8137 15.2 28.4389 17.67 25.7467C17.29 24.7988 15.96 20.8552 18.05 15.7362C18.05 15.7362 21.242 14.7124 28.5 19.6039C31.502 18.7697 34.77 18.3526 38 18.3526C41.23 18.3526 44.498 18.7697 47.5 19.6039C54.758 14.7124 57.95 15.7362 57.95 15.7362C60.04 20.8552 58.71 24.7988 58.33 25.7467C60.8 28.4389 62.244 31.8137 62.244 36.0227C62.244 50.5076 53.352 53.6927 44.878 54.6407C46.246 55.8162 47.5 58.1292 47.5 61.6556V72.0453C47.5 73.0691 48.108 74.2825 50.046 73.9413C65.132 68.8602 76 54.6786 76 37.9186C76 32.9391 75.0171 28.0083 73.1074 23.4078C71.1977 18.8073 68.3987 14.6272 64.8701 11.1061C61.3414 7.58503 57.1523 4.79197 52.542 2.88638C47.9316 0.980794 42.9902 0 38 0Z" fill="black"/>
</svg>
