<svg width="704" height="515" viewBox="0 0 704 515" fill="none" xmlns="http://www.w3.org/2000/svg">
<ellipse cx="425.73" cy="127.36" rx="86.8861" ry="38.616" transform="rotate(45 425.73 127.36)" fill="#2CAE8F"/>
<ellipse cx="277.652" cy="275.441" rx="86.8861" ry="38.616" transform="rotate(45 277.652 275.441)" fill="#2CAE8F"/>
<ellipse cx="425.73" cy="275.44" rx="86.8861" ry="38.616" transform="rotate(-45 425.73 275.44)" fill="#2CAE8F"/>
<ellipse cx="279.751" cy="129.46" rx="86.8861" ry="38.616" transform="rotate(-45 279.751 129.46)" fill="#2CAE8F"/>
<path d="M384.772 230.28C362.535 251.913 352.216 302.745 352.216 302.745C352.216 302.745 342.843 252.456 321.234 230.805C300.421 209.951 252.445 199.824 252.445 199.824C252.445 199.824 301.365 189.303 322.284 167.792C342.447 147.058 352.216 100.053 352.216 100.053C352.216 100.053 363.519 147.137 384.247 167.792C405.767 189.235 455.137 199.824 455.137 199.824C455.137 199.824 406.234 209.401 384.772 230.28Z" fill="#2CAE8F"/>
<path d="M77.7945 476.864L70.6069 456.57H31.9916L24.804 476.864H1.40932L39.0382 376.943H64.8287L102.035 476.864H77.7945ZM51.5811 401.747L39.32 436.276H63.5603L51.5811 401.747ZM184.939 476.864H119.547V376.943H141.814V455.584H184.939V476.864ZM271.788 476.864L264.601 456.57H225.985L218.798 476.864H195.403L233.032 376.943H258.822L296.028 476.864H271.788ZM245.575 401.747L233.314 436.276H257.554L245.575 401.747ZM335.949 476.864H313.541V376.943H377.947V398.083H335.808V419.223H372.873V439.517H335.949V476.864ZM415.485 426.833C415.485 447.691 430.424 456.993 444.377 456.993C458.188 456.993 473.127 447.691 473.127 426.833C473.127 405.975 458.188 396.533 444.377 396.533C430.424 396.533 415.485 405.975 415.485 426.833ZM392.373 426.974C392.373 395.265 416.19 374.829 444.377 374.829C472.422 374.829 496.24 395.265 496.24 426.974C496.24 458.543 472.422 478.978 444.377 478.978C416.19 478.978 392.373 458.543 392.373 426.974ZM565.364 476.864L547.465 439.658H539.573V476.864H517.306V376.943H556.908C576.638 376.943 589.322 390.473 589.322 408.23C589.322 421.76 581.853 432.048 569.592 436.417L589.886 476.864H565.364ZM539.573 420.491H552.68C561.84 420.491 566.773 415.418 566.773 408.371C566.773 400.902 561.84 396.251 552.68 396.251H539.573V420.491ZM677.805 476.864L670.617 456.57H632.002L624.814 476.864H601.42L639.048 376.943H664.839L702.045 476.864H677.805ZM651.591 401.747L639.33 436.276H663.571L651.591 401.747Z" fill="black"/>
</svg>
