<svg width="1309" height="455" viewBox="0 0 1309 455" fill="none" xmlns="http://www.w3.org/2000/svg">
<ellipse cx="308.809" cy="143.211" rx="97.6922" ry="43.4188" transform="rotate(45 308.809 143.211)" fill="#2CAE8F"/>
<ellipse cx="142.313" cy="309.71" rx="97.6922" ry="43.4188" transform="rotate(45 142.313 309.71)" fill="#2CAE8F"/>
<ellipse cx="308.808" cy="309.709" rx="97.6922" ry="43.4188" transform="rotate(-45 308.808 309.709)" fill="#2CAE8F"/>
<ellipse cx="144.675" cy="145.573" rx="97.6922" ry="43.4188" transform="rotate(-45 144.675 145.573)" fill="#2CAE8F"/>
<path d="M262.756 258.932C237.754 283.256 226.151 340.41 226.151 340.41C226.151 340.41 215.612 283.866 191.316 259.522C167.915 236.075 113.971 224.688 113.971 224.688C113.971 224.688 168.976 212.859 192.497 188.672C215.167 165.36 226.151 112.509 226.151 112.509C226.151 112.509 238.86 165.449 262.166 188.672C286.362 212.782 341.872 224.688 341.872 224.688C341.872 224.688 286.888 235.456 262.756 258.932Z" fill="#2CAE8F"/>
<path d="M530.589 291L521.666 265.803H473.722L464.798 291H435.752L482.471 166.941H514.492L560.686 291H530.589ZM498.044 197.737L482.821 240.607H512.917L498.044 197.737ZM663.618 291H582.428V166.941H610.075V264.578H663.618V291ZM771.447 291L762.523 265.803H714.579L705.655 291H676.609L723.328 166.941H755.349L801.543 291H771.447ZM738.901 197.737L723.678 240.607H753.774L738.901 197.737ZM851.107 291H823.286V166.941H903.25V193.188H850.932V219.434H896.951V244.631H851.107V291ZM949.858 228.883C949.858 254.78 968.405 266.328 985.728 266.328C1002.88 266.328 1021.42 254.78 1021.42 228.883C1021.42 202.986 1002.88 191.263 985.728 191.263C968.405 191.263 949.858 202.986 949.858 228.883ZM921.161 229.058C921.161 189.688 950.732 164.316 985.728 164.316C1020.55 164.316 1050.12 189.688 1050.12 229.058C1050.12 268.253 1020.55 293.625 985.728 293.625C950.732 293.625 921.161 268.253 921.161 229.058ZM1135.94 291L1113.72 244.806H1103.92V291H1076.28V166.941H1125.44C1149.94 166.941 1165.69 183.739 1165.69 205.786C1165.69 222.584 1156.41 235.357 1141.19 240.781L1166.39 291H1135.94ZM1103.92 221.009H1120.19C1131.57 221.009 1137.69 214.71 1137.69 205.961C1137.69 196.687 1131.57 190.913 1120.19 190.913H1103.92V221.009ZM1275.55 291L1266.62 265.803H1218.68L1209.75 291H1180.71L1227.43 166.941H1259.45L1305.64 291H1275.55ZM1243 197.737L1227.78 240.607H1257.87L1243 197.737Z" fill="black"/>
</svg>
