<svg width="166" height="59" viewBox="0 0 166 59" fill="none" xmlns="http://www.w3.org/2000/svg">
<rect y="48.7024" width="165.576" height="9.97083" fill="#2CAE8F"/>
<path fill-rule="evenodd" clip-rule="evenodd" d="M80.2197 46.5116L78.1046 45.0008L82.7124 35.7854C85.9101 37.9256 93.7105 42.0549 99.3304 41.4506C104.95 40.8463 104.643 38.127 103.787 36.8429C103.258 36.1127 101.521 34.5466 98.8017 34.1236C95.4025 33.5948 88.5287 30.7999 86.7158 29.7424C84.9029 28.6849 80.0686 25.2102 80.3707 18.7896C80.6729 12.369 83.1656 7.00592 93.9673 4.58875C104.769 2.17158 117.837 9.12094 118.139 9.42309C118.381 9.66481 114.815 15.7682 113.003 18.7896C110.434 17.43 103.999 14.6502 98.8017 14.4085C93.6047 14.1668 93.5645 17.2285 94.1939 18.7896C94.5213 19.3687 96.173 20.7989 100.161 21.8866C100.493 21.977 100.841 22.0703 101.204 22.1675L101.206 22.1679L101.207 22.1682L101.207 22.1684C106.307 23.5339 114.241 25.6583 116.779 30.8755C119.499 36.4652 117.837 43.9433 114.06 46.5116H80.2197ZM0.150879 46.5116V26.4188C0.377489 19.545 5.13629 5.55562 22.3586 4.58875H28.7792V16.2214C24.2722 15.5667 15.228 16.6897 15.1071 26.4188C14.9863 36.1479 15.0568 43.8678 15.1071 46.5116H0.150879ZM32.8582 16.2214V4.58875H39.0522C46.7066 4.66428 62.1362 9.13605 62.6196 26.4188C63.1031 43.7016 62.8211 47.0151 62.6196 46.5116H22.3586C19.8407 40.2924 18.748 27.1742 34.52 24.4549H47.4368C46.9836 21.8614 44.657 16.584 38.9767 16.2214H32.8582ZM64.9613 11.8403V46.5116H78.0291V11.8403C72.6509 17.2185 67.0763 14.0812 64.9613 11.8403ZM117.912 28.1562C117.731 38.0666 122.822 44.5224 125.391 46.5116L157.343 46.5871C160.304 44.5325 162.907 39.1342 163.839 36.6918H148.731C147.749 38.2781 145.257 40.5442 141.48 40.5442C134.889 40.5442 132.491 34.8034 132.113 32.0841H164.972V25.2102C164.594 16.2214 156.814 4.58875 140.724 4.58875C124.635 4.58875 118.139 15.7682 117.912 28.1562ZM37.0886 32.3106H47.8903V38.1269C42.6028 45.8316 32.9341 42.4325 32.5564 37.5226C32.2543 33.5947 35.452 32.4113 37.0886 32.3106ZM132.416 24.1527C133.121 21.3831 135.896 16.2903 141.48 16.5991C148.51 16.9878 149.523 20.693 150.413 23.9505C150.432 24.0181 150.45 24.0855 150.469 24.1527H132.416Z" fill="#1E4C41"/>
<circle cx="71.5331" cy="6.57168" r="6.57168" fill="#2CAE8F"/>
</svg>
